<svg xmlns="http://www.w3.org/2000/svg" width="1440" height="900" viewBox="0 0 1440 900">
  <defs><linearGradient id="g" x1="0" y1="0" x2="0" y2="1"><stop stop-color="#ffc978"/><stop offset=".48" stop-color="#ffe5a6"/><stop offset=".7" stop-color="#43d2d8"/><stop offset="1" stop-color="#064670"/></linearGradient><filter id="blur"><feGaussianBlur stdDeviation="9"/></filter></defs>
  <rect width="1440" height="900" fill="url(#g)"/><rect y="530" width="1440" height="370" fill="#0d7890" opacity=".72"/>
  <g opacity=".42" stroke="#fff3c9" stroke-width="5" fill="none"><path d="M0 590 C230 540 360 650 570 600 S1030 545 1440 610"/><path d="M0 675 C280 640 450 720 720 665 S1100 625 1440 690"/></g>
  <text x="88" y="585" fill="white" font-family="Georgia" font-size="126" font-weight="700" letter-spacing="-9">Monsoon light</text><text x="88" y="690" fill="white" font-family="Georgia" font-size="126" font-weight="700" letter-spacing="-9">over golden shores</text>
  <g transform="translate(1130 420) rotate(-15)" fill="#083d2a" opacity=".78"><rect x="-9" y="0" width="18" height="340"/><ellipse cx="92" cy="0" rx="132" ry="18"/><ellipse cx="-92" cy="0" rx="132" ry="18"/><ellipse cx="0" cy="92" rx="18" ry="132"/><ellipse cx="0" cy="-92" rx="18" ry="132"/></g>
  <g font-family="Inter,Arial" font-size="26" font-weight="700"><rect x="58" y="52" width="430" height="92" rx="18" fill="#061a24" opacity=".82"/><text x="82" y="90" fill="#ffe7a6">1. Pinned panoramic hero</text><text x="82" y="123" fill="white" font-size="18">Monet-like sand, palms, and Arabian Sea.</text><path d="M330 145 L420 500" stroke="#ffe7a6" stroke-width="4" fill="none"/>
  <rect x="860" y="68" width="470" height="98" rx="18" fill="#061a24" opacity=".82"/><text x="884" y="106" fill="#ffe7a6">2. Oversized kinetic type</text><text x="884" y="139" fill="white" font-size="18">Fades through blur like morning mist.</text><path d="M1030 168 L780 575" stroke="#ffe7a6" stroke-width="4" fill="none"/>
  <rect x="880" y="730" width="460" height="92" rx="18" fill="#061a24" opacity=".82"/><text x="904" y="768" fill="#ffe7a6">3. Shader-like broken color</text><text x="904" y="801" fill="white" font-size="18">Scrolling morphs beach into dappled water.</text><path d="M980 728 L770 635" stroke="#ffe7a6" stroke-width="4" fill="none"/></g>
</svg>
